<?xml version="1.0" encoding="UTF-8" standalone="no"?>
<!DOCTYPE svg PUBLIC "-//W3C//DTD SVG 1.1//EN" "http://www.w3.org/Graphics/SVG/1.1/DTD/svg11.dtd">
<svg width="100%" height="100%" viewBox="0 0 150 112" version="1.1" xmlns="http://www.w3.org/2000/svg" xmlns:xlink="http://www.w3.org/1999/xlink" xml:space="preserve" xmlns:serif="http://www.serif.com/" style="fill-rule:evenodd;clip-rule:evenodd;stroke-linejoin:round;stroke-miterlimit:2;">
    <g transform="matrix(1,0,0,1,-3984.47,-894.438)">
        <g transform="matrix(4.16667,0,0,4.16667,0,0)">
            <g transform="matrix(0.24,0,0,0.24,991.94,232.454)">
                <path d="M0,-39.146L-94.186,-39.145L-113.452,-55.043L-134.109,-38.023L-134.109,14.718C-134.109,15.339 -133.528,15.897 -132.907,15.897L-132.536,15.897C-131.915,15.897 -131.356,15.339 -131.356,14.718L-131.37,-36.731L-113.453,-51.492L-95.171,-36.406L0,-36.416C0.621,-36.416 1.179,-36.974 1.179,-37.595L1.179,-37.967C1.179,-38.587 0.621,-39.146 0,-39.146" style="fill:rgb(183,39,75);fill-rule:nonzero;"/>
            </g>
        </g>
        <g transform="matrix(4.16667,0,0,4.16667,0,0)">
            <g transform="matrix(0.24,0,0,0.24,971.202,230.79)">
                <path d="M0,-44.361L-27.034,-67.189L-62.211,-38.266L-62.211,21.649C-62.211,22.269 -61.612,22.828 -60.991,22.828L-60.62,22.828C-59.999,22.828 -59.44,22.269 -59.44,21.649L-59.44,-36.971L-27.056,-63.623L-1.766,-42.278C-1.292,-41.876 -0.505,-41.941 -0.104,-42.415L0.138,-42.699C0.539,-43.173 0.474,-43.96 0,-44.361" style="fill:rgb(147,149,152);fill-rule:nonzero;"/>
            </g>
        </g>
        <g transform="matrix(4.16667,0,0,4.16667,0,0)">
            <g transform="matrix(0.24,0,0,0.24,957.917,239.33)">
                <path d="M0,8.574L0,-0.002C0,-0.135 -0.11,-0.233 -0.244,-0.233L-1.45,-0.233C-1.585,-0.233 -1.694,-0.135 -1.694,-0.002L-1.694,3.354L-5.16,3.354L-5.16,-0.002C-5.16,-0.135 -5.27,-0.233 -5.404,-0.233L-6.611,-0.233C-6.745,-0.233 -6.855,-0.135 -6.855,-0.002L-6.855,8.574C-6.855,8.708 -6.745,8.818 -6.611,8.818L-5.404,8.818C-5.27,8.818 -5.16,8.708 -5.16,8.574L-5.16,4.841L-1.694,4.841L-1.694,8.574C-1.694,8.708 -1.585,8.818 -1.45,8.818L-0.244,8.818C-0.11,8.818 0,8.708 0,8.574M8.711,8.611C8.711,8.598 8.699,8.574 8.699,8.55L6.698,0.901C6.406,-0.233 5.527,-0.342 5.003,-0.342C4.478,-0.342 3.6,-0.233 3.307,0.901L1.306,8.55C1.306,8.574 1.294,8.598 1.294,8.611C1.294,8.733 1.391,8.818 1.513,8.818L2.807,8.818C2.916,8.818 3.014,8.72 3.038,8.611L3.6,6.293L6.406,6.293L6.967,8.611C6.991,8.72 7.089,8.818 7.198,8.818L8.492,8.818C8.614,8.818 8.711,8.733 8.711,8.611M6.076,4.903L3.929,4.903L4.807,1.279C4.844,1.132 4.881,1.083 5.003,1.083C5.125,1.083 5.161,1.132 5.198,1.279L6.076,4.903ZM16.409,5.468L16.409,-0.001C16.409,-0.135 16.299,-0.233 16.165,-0.233L14.958,-0.233C14.824,-0.233 14.714,-0.135 14.714,-0.001L14.714,5.468C14.714,6.856 14.373,7.514 13.054,7.514C11.736,7.514 11.395,6.856 11.395,5.468L11.395,-0.001C11.395,-0.135 11.285,-0.233 11.151,-0.233L9.944,-0.233C9.81,-0.233 9.7,-0.135 9.7,-0.001L9.7,5.468C9.7,8.063 11.09,8.916 13.054,8.916C15.019,8.916 16.409,8.063 16.409,5.468M23.814,6.367C23.814,5.403 23.46,4.622 22.119,3.878L20.655,3.06C19.861,2.621 19.654,2.377 19.654,1.974C19.654,1.425 20.032,1.108 20.935,1.108C21.729,1.108 22.534,1.157 23.338,1.23L23.363,1.23C23.485,1.23 23.57,1.132 23.57,1.01L23.57,0.108C23.57,-0.013 23.472,-0.099 23.35,-0.123C22.936,-0.221 21.814,-0.342 21.009,-0.342C18.739,-0.342 17.959,0.632 17.959,1.974C17.959,2.828 18.264,3.536 19.398,4.207L21.009,5.171C21.814,5.647 22.046,5.891 22.046,6.367C22.046,7.075 21.717,7.465 20.63,7.465C20.178,7.465 18.959,7.404 18.471,7.343L18.447,7.343C18.325,7.343 18.215,7.441 18.215,7.575L18.215,8.452C18.215,8.587 18.325,8.672 18.447,8.696C19.032,8.83 19.69,8.916 20.606,8.916C23.046,8.916 23.814,7.599 23.814,6.367M31.939,-0.037C31.939,-0.159 31.854,-0.245 31.732,-0.245L31.012,-0.245C30.915,-0.245 30.829,-0.159 30.805,-0.062L28.67,7.709C28.621,7.88 28.56,7.966 28.438,7.966C28.304,7.966 28.243,7.88 28.194,7.709L26.071,-0.062C26.047,-0.159 25.949,-0.245 25.852,-0.245L25.144,-0.245C25.022,-0.245 24.924,-0.159 24.924,-0.037C24.924,-0.013 24.924,0.011 24.937,0.036L27.194,7.978C27.413,8.745 27.987,8.903 28.438,8.903C28.902,8.903 29.463,8.745 29.682,7.978L31.927,0.036C31.939,0.011 31.939,-0.013 31.939,-0.037M38.234,8.672L38.234,8.051C38.234,7.965 38.185,7.905 38.099,7.905L35.745,7.905C34.452,7.905 34.244,7.563 34.244,6.635L34.244,4.585L37.99,4.585C38.124,4.585 38.234,4.475 38.234,4.341L38.234,3.878C38.234,3.744 38.124,3.635 37.99,3.635L34.244,3.635L34.244,1.938C34.244,1.01 34.452,0.669 35.745,0.669L38.099,0.669C38.185,0.669 38.234,0.608 38.234,0.522L38.234,-0.087C38.234,-0.16 38.185,-0.245 38.112,-0.257C37.599,-0.306 36.452,-0.33 35.733,-0.33C34.025,-0.33 33.136,0.315 33.136,1.938L33.136,6.635C33.136,8.258 34.025,8.903 35.733,8.903C36.452,8.903 37.648,8.891 38.112,8.842C38.185,8.83 38.234,8.745 38.234,8.672M46.2,8.659C46.2,8.623 46.188,8.586 46.163,8.55L43.944,4.841C45.054,4.549 45.858,3.744 45.858,2.377L45.858,2.292C45.858,0.315 44.371,-0.33 42.443,-0.33C41.735,-0.33 40.82,-0.294 40.296,-0.233C40.077,-0.208 40.004,-0.135 40.004,0.035L40.004,8.574C40.004,8.708 40.102,8.818 40.223,8.818L40.881,8.818C41.015,8.818 41.101,8.696 41.101,8.574L41.101,4.987C41.747,5.012 42.04,5.024 42.443,5.024L42.76,5.024L44.945,8.659C45.042,8.818 45.115,8.818 45.261,8.818L46.041,8.818C46.139,8.818 46.2,8.745 46.2,8.659M44.762,2.377C44.762,3.695 43.944,4.074 42.443,4.074C42.162,4.074 41.638,4.062 41.101,4.049L41.101,0.705C41.393,0.669 42.065,0.669 42.443,0.669C43.969,0.669 44.762,1.071 44.762,2.292L44.762,2.377ZM56.388,-0.037C56.388,-0.159 56.302,-0.245 56.18,-0.245L55.473,-0.245C55.375,-0.245 55.29,-0.172 55.265,-0.037L54.082,7.734C54.058,7.856 54.07,7.917 54.021,7.917C53.972,7.917 53.96,7.844 53.936,7.734L52.74,3.219C52.655,2.89 52.484,2.732 52.167,2.732L51.386,2.732C51.069,2.732 50.898,2.89 50.812,3.219L49.617,7.734C49.592,7.844 49.58,7.917 49.531,7.917C49.483,7.917 49.495,7.856 49.47,7.734L48.287,-0.037C48.263,-0.172 48.177,-0.245 48.08,-0.245L47.372,-0.245C47.25,-0.245 47.165,-0.159 47.165,-0.037L47.165,-0.001L48.519,8.246C48.604,8.745 48.885,8.867 49.275,8.867L49.788,8.867C50.129,8.867 50.385,8.623 50.483,8.258L51.691,3.743C51.715,3.633 51.727,3.633 51.764,3.633L51.788,3.633C51.825,3.633 51.837,3.633 51.862,3.743L53.057,8.258C53.155,8.623 53.411,8.867 53.753,8.867L54.277,8.867C54.668,8.867 54.948,8.745 55.034,8.246L56.388,-0.001L56.388,-0.037ZM63.768,8.623C63.768,8.598 63.768,8.562 63.756,8.537L61.499,0.583C61.292,-0.16 60.719,-0.33 60.267,-0.33C59.804,-0.33 59.23,-0.148 59.023,0.595L56.766,8.537C56.754,8.562 56.754,8.598 56.754,8.623C56.754,8.733 56.839,8.818 56.961,8.818L57.681,8.818C57.778,8.818 57.876,8.733 57.9,8.635L58.681,5.829L61.841,5.829L62.634,8.635C62.658,8.733 62.732,8.818 62.841,8.818L63.561,8.818C63.695,8.818 63.768,8.733 63.768,8.623M61.609,4.867L58.913,4.867L60.023,0.852C60.06,0.717 60.133,0.632 60.267,0.632C60.389,0.632 60.462,0.717 60.499,0.852L61.609,4.867ZM70.099,8.623L70.099,8.051C70.099,7.965 70.051,7.905 69.965,7.905L67.611,7.905C66.318,7.905 66.11,7.563 66.11,6.636L66.11,-0.001C66.11,-0.135 66,-0.245 65.866,-0.245L65.245,-0.245C65.111,-0.245 65.001,-0.135 65.001,-0.001L65.001,6.636C65.001,8.648 66.293,8.903 67.598,8.903C68.745,8.903 69.66,8.842 69.977,8.794C70.051,8.782 70.099,8.696 70.099,8.623M76.028,0.51L76.028,-0.026C76.028,-0.16 75.931,-0.245 75.797,-0.245L69.93,-0.245C69.796,-0.245 69.686,-0.147 69.686,-0.026L69.686,0.51C69.686,0.644 69.796,0.705 69.93,0.705L72.309,0.705L72.309,8.574C72.309,8.708 72.406,8.818 72.528,8.818L73.198,8.818C73.332,8.818 73.418,8.696 73.418,8.574L73.418,0.705L75.797,0.705C75.931,0.705 76.028,0.632 76.028,0.51M83.763,5.526L83.763,-0.013C83.763,-0.147 83.653,-0.245 83.532,-0.245L82.874,-0.245C82.74,-0.245 82.642,-0.135 82.642,-0.013L82.642,5.526C82.642,7.112 82.154,7.953 80.641,7.953C79.127,7.953 78.639,7.099 78.639,5.526L78.639,-0.013C78.639,-0.147 78.529,-0.245 78.408,-0.245L77.75,-0.245C77.616,-0.245 77.518,-0.135 77.518,-0.013L77.518,5.526C77.518,7.856 78.664,8.903 80.641,8.903C82.618,8.903 83.763,7.856 83.763,5.526M92.168,8.464L92.168,-0.013C92.168,-0.135 92.083,-0.245 91.949,-0.245L91.303,-0.245C91.182,-0.245 91.084,-0.135 91.084,-0.013L91.084,7.123C91.084,7.135 91.084,7.159 91.072,7.159L91.048,7.123L87.301,-0.001C87.203,-0.184 87.142,-0.245 86.801,-0.245L86.131,-0.245C85.936,-0.245 85.777,-0.099 85.777,0.097L85.777,8.672C85.777,8.794 85.875,8.818 85.997,8.818L86.63,8.818C86.752,8.818 86.849,8.708 86.849,8.586L86.849,1.463C86.849,1.438 86.849,1.426 86.862,1.426C86.874,1.426 86.886,1.438 86.898,1.463L90.669,8.623C90.73,8.745 90.865,8.818 91.06,8.818L91.815,8.818C92.01,8.818 92.168,8.659 92.168,8.464M99.781,8.453L99.781,4.354C99.781,4.219 99.671,4.11 99.549,4.11L98.892,4.11C98.758,4.11 98.672,4.219 98.672,4.354L98.672,7.844C98.379,7.868 97.879,7.917 97.134,7.917C95.999,7.917 95.084,7.124 95.084,5.11L95.084,3.475C95.084,1.279 96.109,0.669 97.244,0.669C98.282,0.669 98.843,0.693 99.562,0.754L99.61,0.754C99.72,0.754 99.769,0.717 99.769,0.632L99.769,0.023C99.769,-0.099 99.671,-0.148 99.562,-0.16C99.099,-0.233 98.379,-0.33 97.244,-0.33C95.682,-0.33 93.975,0.51 93.975,3.475L93.975,5.11C93.975,7.905 95.609,8.903 97.134,8.903C98.282,8.903 98.965,8.818 99.562,8.721C99.696,8.696 99.781,8.587 99.781,8.453M106.979,6.465C106.979,5.488 106.479,4.817 105.065,3.975L103.942,3.304C103.014,2.743 102.611,2.401 102.611,1.828C102.611,0.937 103.148,0.669 104.405,0.669C105.113,0.669 105.968,0.705 106.504,0.742L106.528,0.742C106.65,0.742 106.735,0.669 106.735,0.547L106.735,0.023C106.735,-0.099 106.65,-0.16 106.528,-0.184C106.065,-0.257 105.126,-0.33 104.405,-0.33C102.55,-0.33 101.49,0.352 101.49,1.828C101.49,2.804 102.051,3.426 103.173,4.11L104.357,4.83C105.467,5.513 105.821,5.855 105.821,6.465C105.821,7.319 105.431,7.905 103.966,7.905C103.405,7.905 102.514,7.88 101.953,7.831L101.917,7.831C101.807,7.831 101.71,7.892 101.71,8.026L101.71,8.514C101.71,8.648 101.734,8.696 101.941,8.733C102.477,8.818 103.112,8.903 103.966,8.903C106.37,8.903 106.979,7.636 106.979,6.465M117.409,8.453L117.409,4.354C117.409,4.219 117.3,4.11 117.178,4.11L116.52,4.11C116.386,4.11 116.301,4.219 116.301,4.354L116.301,7.844C116.008,7.868 115.507,7.917 114.763,7.917C113.628,7.917 112.712,7.124 112.712,5.11L112.712,3.475C112.712,1.279 113.738,0.669 114.873,0.669C115.91,0.669 116.471,0.693 117.19,0.754L117.239,0.754C117.348,0.754 117.397,0.717 117.397,0.632L117.397,0.023C117.397,-0.099 117.3,-0.148 117.19,-0.16C116.727,-0.233 116.008,-0.33 114.873,-0.33C113.31,-0.33 111.604,0.51 111.604,3.475L111.604,5.11C111.604,7.905 113.237,8.903 114.763,8.903C115.91,8.903 116.593,8.818 117.19,8.721C117.324,8.696 117.409,8.587 117.409,8.453M126.852,8.574L126.852,0.109C126.852,-0.086 126.693,-0.245 126.499,-0.245L125.707,-0.245C125.487,-0.245 125.389,-0.196 125.316,-0.038L123.303,4.146C123.254,4.256 123.217,4.28 123.156,4.28C123.095,4.28 123.058,4.256 123.01,4.146L120.996,-0.038C120.923,-0.196 120.825,-0.245 120.606,-0.245L119.814,-0.245C119.619,-0.245 119.46,-0.086 119.46,0.109L119.46,8.574C119.46,8.708 119.57,8.818 119.704,8.818L120.301,8.818C120.435,8.818 120.545,8.708 120.545,8.574L120.545,1.341C120.545,1.316 120.545,1.304 120.557,1.304C120.569,1.304 120.569,1.304 120.581,1.329L122.326,4.939C122.448,5.183 122.57,5.293 122.875,5.293L123.437,5.293C123.742,5.293 123.864,5.183 123.986,4.939L125.731,1.329C125.743,1.304 125.743,1.304 125.755,1.304C125.768,1.304 125.768,1.316 125.768,1.341L125.768,8.574C125.768,8.708 125.877,8.818 126.011,8.818L126.608,8.818C126.742,8.818 126.852,8.708 126.852,8.574M134.843,6.324L134.843,6.117C134.843,5.181 134.331,4.439 133.49,4.146C134.319,3.83 134.794,3.132 134.794,2.225L134.794,2.029C134.794,0.181 133.16,-0.33 131.22,-0.33C130.426,-0.33 129.682,-0.282 129.28,-0.233C129.025,-0.208 128.891,-0.062 128.891,0.218L128.891,8.343C128.891,8.648 129.012,8.757 129.293,8.794C129.756,8.867 130.475,8.903 131.281,8.903C133.185,8.903 134.843,8.367 134.843,6.324M133.685,2.225C133.685,2.997 133.307,3.683 131.891,3.683L130.011,3.683L130.011,0.644C130.353,0.632 130.805,0.608 131.22,0.608C132.709,0.608 133.685,0.853 133.685,2.029L133.685,2.225ZM133.734,6.324C133.734,7.637 132.794,7.966 131.281,7.966C130.854,7.966 130.414,7.929 130.011,7.917L130.011,4.572L131.891,4.572C133.331,4.572 133.734,5.314 133.734,6.117L133.734,6.324ZM142.943,8.574L142.943,-0.001C142.943,-0.135 142.833,-0.245 142.699,-0.245L142.078,-0.245C141.944,-0.245 141.834,-0.135 141.834,-0.001L141.834,3.537L137.661,3.537L137.661,-0.001C137.661,-0.135 137.551,-0.245 137.417,-0.245L136.796,-0.245C136.662,-0.245 136.552,-0.135 136.552,-0.001L136.552,8.574C136.552,8.708 136.662,8.818 136.796,8.818L137.417,8.818C137.551,8.818 137.661,8.708 137.661,8.574L137.661,4.524L141.834,4.524L141.834,8.574C141.834,8.708 141.944,8.818 142.078,8.818L142.699,8.818C142.833,8.818 142.943,8.708 142.943,8.574" style="fill:rgb(147,149,152);fill-rule:nonzero;"/>
            </g>
        </g>
        <g transform="matrix(4.16667,0,0,4.16667,0,0)">
            <g transform="matrix(0.24,0,0,0.24,969.585,229.564)">
                <path d="M0,9.826L0,8.098C0,-0.989 -3.904,-7.132 -12.735,-7.132C-21.182,-7.132 -25.662,-0.669 -25.662,8.162L-25.662,12.386C-25.662,24.481 -19.198,27.936 -11.263,27.936C-8.383,27.936 -4.736,27.488 -1.664,26.848C-0.704,26.656 -0.448,26.336 -0.448,25.633L-0.448,25.185C-0.448,24.353 -1.152,24.225 -1.792,24.353C-4.928,24.993 -8.447,25.441 -11.263,25.441C-17.662,25.441 -22.846,23.137 -22.846,12.386L-22.846,11.042L-1.216,11.042C-0.576,11.042 0,10.53 0,9.826M-2.816,8.482L-22.846,8.482L-22.846,8.162C-22.846,0.547 -19.838,-4.637 -12.735,-4.637C-5.503,-4.637 -2.816,0.035 -2.816,8.098L-2.816,8.482ZM11.454,26.72L11.454,-16.894C11.454,-17.534 11.006,-18.11 10.366,-18.11L9.726,-18.11C9.086,-18.11 8.638,-17.534 8.638,-16.894L8.638,26.72C8.638,27.36 9.086,27.936 9.726,27.936L10.366,27.936C11.006,27.936 11.454,27.36 11.454,26.72M40.588,19.041C40.588,14.818 37.773,12.706 32.461,9.762L28.174,7.394C24.27,5.218 21.966,3.555 21.966,0.739C21.966,-3.805 25.102,-4.637 29.197,-4.637C32.717,-4.637 36.429,-4.125 38.093,-3.933C39.053,-3.805 39.436,-3.933 39.436,-4.957L39.436,-5.469C39.436,-6.3 38.989,-6.428 38.093,-6.556C35.917,-6.812 33.549,-7.132 28.941,-7.132C23.886,-7.132 19.15,-5.213 19.15,0.739C19.15,5.09 22.094,7.202 26.894,9.826L30.989,12.066C36.365,15.01 37.773,16.417 37.773,19.041C37.773,24.225 34.253,25.441 29.645,25.441C27.022,25.441 23.31,24.929 20.238,24.417C19.47,24.289 18.83,24.545 18.83,25.313L18.83,26.016C18.83,26.72 19.342,26.848 20.238,27.04C22.542,27.488 26.638,27.936 29.517,27.936C35.469,27.936 40.588,25.888 40.588,19.041M64.185,26.72L64.185,26.336C64.185,25.761 63.801,25.441 62.841,25.441L59.769,25.441C56.953,25.441 55.353,24.865 55.353,21.025L55.353,-4.189L62.969,-4.189C63.673,-4.189 64.185,-4.573 64.185,-5.213L64.185,-5.853C64.185,-6.492 63.673,-6.812 62.969,-6.812L55.353,-6.812L55.353,-13.404C55.353,-14.044 54.969,-14.62 54.329,-14.62L53.626,-14.62C52.922,-14.62 52.538,-14.044 52.538,-13.404L52.538,-6.812L46.202,-6.812C45.498,-6.812 44.986,-6.492 44.986,-5.853L44.986,-5.213C44.986,-4.573 45.498,-4.189 46.202,-4.189L52.538,-4.189L52.538,21.025C52.538,26.528 55.225,27.936 59.769,27.936C60.857,27.936 62.137,27.872 63.097,27.744C63.993,27.616 64.185,27.232 64.185,26.72M94.325,9.826L94.325,8.098C94.325,-0.989 90.422,-7.132 81.591,-7.132C73.143,-7.132 68.664,-0.669 68.664,8.162L68.664,12.386C68.664,24.481 75.127,27.936 83.062,27.936C85.942,27.936 89.59,27.488 92.662,26.848C93.621,26.656 93.877,26.336 93.877,25.633L93.877,25.185C93.877,24.353 93.174,24.225 92.534,24.353C89.398,24.993 85.878,25.441 83.062,25.441C76.663,25.441 71.48,23.137 71.48,12.386L71.48,11.042L93.11,11.042C93.749,11.042 94.325,10.53 94.325,9.826M91.51,8.482L71.48,8.482L71.48,8.162C71.48,0.547 74.487,-4.637 81.591,-4.637C88.822,-4.637 91.51,0.035 91.51,8.098L91.51,8.482Z" style="fill:rgb(147,149,152);fill-rule:nonzero;"/>
            </g>
        </g>
    </g>
</svg>
